<?xml version="1.0" encoding="utf-8"?>
<!-- Generator: Adobe Illustrator 23.0.4, SVG Export Plug-In . SVG Version: 6.00 Build 0)  -->
<svg version="1.1" id="Layer_1" xmlns="http://www.w3.org/2000/svg" xmlns:xlink="http://www.w3.org/1999/xlink" x="0px" y="0px"
	 viewBox="0 0 239.9 89.6" style="enable-background:new 0 0 239.9 89.6;" xml:space="preserve">
<style type="text/css">
	.st0{fill:#8FBF21;}
	.st1{clip-path:url(#SVGID_2_);}
	.st2{clip-path:url(#SVGID_4_);}
	.st3{clip-path:url(#SVGID_6_);}
	.st4{clip-path:url(#SVGID_8_);}
	.st5{font-family:'ArialMT';}
	.st6{font-size:6px;}
	.st7{fill:none;stroke:#000000;stroke-width:0.25;stroke-miterlimit:10;}
	.st8{font-size:5px;}
	.st9{font-size:4px;}
	.st10{clip-path:url(#SVGID_10_);}
</style>
<symbol  id="Arrow_8" viewBox="-11 -3.4 22 6.8">
	<g>
		<path class="st0" d="M11-2.6c-4-2-9,0-13,2c0-1,0-1,0-2c-3,2-6,3-9,3c3,2,7,3,11,3c-1,0-1-1-2-1c4-3,9-2,13-1
			C11,0.4,11-1.6,11-2.6L11-2.6z"/>
	</g>
</symbol>
<image style="overflow:visible;enable-background:new    ;" width="392" height="353" xlink:href="B7A60BD96F06C3C9.jpeg"  transform="matrix(4.811048e-02 0 0 4.811048e-02 195.1121 61.4081)">
</image>
<g>
	<g>
		<defs>
			<rect id="SVGID_1_" x="6.8" y="32.8" width="37.1" height="30.9"/>
		</defs>
		<clipPath id="SVGID_2_">
			<use xlink:href="#SVGID_1_"  style="overflow:visible;"/>
		</clipPath>
		<g class="st1">
			<g>
				<defs>
					<rect id="SVGID_3_" x="6.8" y="32.8" width="37.3" height="31.3"/>
				</defs>
				<clipPath id="SVGID_4_">
					<use xlink:href="#SVGID_3_"  style="overflow:visible;"/>
				</clipPath>
				<g class="st2">
					
						<image style="overflow:visible;enable-background:new    ;" width="1044" height="907" xlink:href="B7A60BD96F06C3CB.jpeg"  transform="matrix(2.235369e-02 0 0 3.451312e-02 13.7435 32.7911)">
					</image>
				</g>
			</g>
		</g>
	</g>
</g>
<g>
	<g>
		<defs>
			<rect id="SVGID_5_" x="17.4" y="47.1" width="35.1" height="30"/>
		</defs>
		<clipPath id="SVGID_6_">
			<use xlink:href="#SVGID_5_"  style="overflow:visible;"/>
		</clipPath>
		<g class="st3">
			<g>
				<defs>
					<rect id="SVGID_7_" x="17.4" y="47.1" width="35.1" height="30"/>
				</defs>
				<clipPath id="SVGID_8_">
					<use xlink:href="#SVGID_7_"  style="overflow:visible;"/>
				</clipPath>
				<g class="st4">
					
						<image style="overflow:visible;enable-background:new    ;" width="1051" height="905" xlink:href="B7A60BD96F06C3C9.jpeg"  transform="matrix(3.202597e-02 0 0 3.323978e-02 18.0879 47.1537)">
					</image>
				</g>
			</g>
		</g>
	</g>
</g>
<g id="rZIWJQ.tif">
	
		<image style="overflow:visible;enable-background:new    ;" width="212" height="181" id="Layer_0_1_" xlink:href="B7A60BD96F06C3CE.png"  transform="matrix(0.2272 0 0 0.2272 63.0936 35.4978)">
	</image>
</g>
<text transform="matrix(1.0205 0 0 1 29.1729 8.0461)" class="st5 st6">Image preprocessing</text>
<line class="st7" x1="25.4" y1="10.5" x2="85.4" y2="10.5"/>
<text transform="matrix(1.0205 0 0 1 105.375 8.2019)" class="st5 st6">Deep learning</text>
<image style="overflow:visible;enable-background:new    ;" width="573" height="560" xlink:href="B7A60BD96F06C3C9.jpeg"  transform="matrix(7.555625e-02 0 0 7.815500e-02 125.9961 34.2007)">
</image>
<text transform="matrix(1.0205 0 0 1 166.1025 8.2854)" class="st5 st6">Transfer learning</text>
<text transform="matrix(1.0205 0 0 1 41.7241 18.1858)" class="st5 st8">tiling, QC</text>
<text transform="matrix(1.0205 0 0 1 99.1289 17.1643)" class="st5 st8">fine-tuning Inception-V4 </text>
<text transform="matrix(1.0205 0 0 1 99.1289 23.1643)" class="st5 st8">for tissue classification</text>
<g id="mSvBBS.tif">
	
		<image style="overflow:visible;enable-background:new    ;" width="318" height="302" id="Layer_0_5_" xlink:href="B7A60BD96F06C3CA.png"  transform="matrix(5.854843e-02 0 0 5.854843e-02 191.9863 33.9721)">
	</image>
</g>
<text transform="matrix(1.0205 0 0 1 209.7246 66.2185)" class="st5 st9">Clinical survival</text>
<text transform="matrix(1.0205 0 0 1 66.7368 84.4641)" class="st5 st8">14M tiles, 512X512px</text>
<text transform="matrix(1.0205 0 0 1 2.4917 84.2795)" class="st5 st8">~8,000 slides of 42 tissues</text>
<text transform="matrix(1.0205 0 0 1 217.7251 44.9343)" class="st5 st9"> Mutations</text>
<text transform="matrix(1.0205 0 0 1 212.5308 49.7341)" class="st5 st9">Copy number</text>
<text transform="matrix(1.0205 0 0 1 207.6792 56.9299)" class="st5 st9">Gene expression</text>
<text transform="matrix(1.0205 0 0 1 168.8281 16.6536)" class="st5 st8">Inferring from </text>
<text transform="matrix(1.0205 0 0 1 168.8281 22.6536)" class="st5 st8">1536 image features</text>
<line class="st7" x1="92.2" y1="10.5" x2="152.2" y2="10.5"/>
<line class="st7" x1="157.9" y1="10.5" x2="217.9" y2="10.5"/>
<use xlink:href="#Arrow_8"  width="22" height="6.8" id="XMLID_1_" x="-11" y="-3.4" transform="matrix(-1 0 0 1 56.2201 30.4472)" style="overflow:visible;"/>
<use xlink:href="#Arrow_8"  width="22" height="6.8" id="XMLID_2_" x="-11" y="-3.4" transform="matrix(-1 0 0 1 118.377 30.0733)" style="overflow:visible;enable-background:new    ;"/>
<use xlink:href="#Arrow_8"  width="22" height="6.8" id="XMLID_3_" x="-11" y="-3.4" transform="matrix(-1 0 0 1 181.0582 29.0733)" style="overflow:visible;enable-background:new    ;"/>
<g>
	<g>
		<defs>
			<ellipse id="SVGID_9_" cx="186.9" cy="56.3" rx="8.2" ry="8.4"/>
		</defs>
		<clipPath id="SVGID_10_">
			<use xlink:href="#SVGID_9_"  style="overflow:visible;"/>
		</clipPath>
		<g transform="matrix(1 0 0 1 0 0)" class="st10">
			
				<image style="overflow:visible;enable-background:new    ;" width="428" height="406" xlink:href="B7A60BD96F06C3C9.jpeg"  transform="matrix(4.035369e-02 0 0 4.280763e-02 178.5087 47.6534)">
			</image>
		</g>
	</g>
</g>
<text transform="matrix(1 0 0 1 133.3046 84.2655)" class="st5 st8">Image features</text>
<text transform="matrix(1 0 0 1 179.1875 84.7441)" class="st5 st8">Molecular traits+Outcomes</text>
</svg>
